<svg xmlns="http://www.w3.org/2000/svg" viewBox="0 0 512 512">
  <defs>
    <linearGradient id="bg" x1="0" y1="0" x2="1" y2="1">
      <stop offset="0%" stop-color="#dbeafe"/>
      <stop offset="100%" stop-color="#bfdbfe"/>
    </linearGradient>
  </defs>
  <rect width="512" height="512" fill="url(#bg)"/>
  <circle cx="256" cy="205" r="108" fill="#f1c27d"/>
  <path d="M145 175c10-79 58-118 111-118 76 0 121 49 122 127-28-19-54-32-87-34-62-4-98 24-146 54 0-12-1-20 0-29Z" fill="#1f2937"/>
  <rect x="168" y="314" width="176" height="142" rx="72" fill="#2563eb"/>
  <circle cx="215" cy="206" r="10" fill="#111827"/>
  <circle cx="297" cy="206" r="10" fill="#111827"/>
  <path d="M219 257c24 19 50 19 74 0" fill="none" stroke="#7c2d12" stroke-linecap="round" stroke-width="10"/>
</svg>
